<svg width="25" height="25" viewBox="0 0 25 25" fill="none" xmlns="http://www.w3.org/2000/svg">
<g clip-path="url(#clip0_0_1482)">
<path d="M10.3482 3.74871H16.0963C16.3153 3.74871 16.4952 3.81909 16.636 3.95987C16.7767 4.10064 16.8471 4.28051 16.8471 4.49949V10.2476H15.3456V6.30605L8.09584 13.5558L7.04005 12.5L14.2898 5.25027H10.3482V3.74871ZM0.329956 5.48489C0.329956 5.28155 0.404252 5.10559 0.552844 4.957C0.701436 4.8084 0.8774 4.73411 1.08074 4.73411H7.83776V6.23567H1.83152V18.7643H14.3602V12.7581H15.8617V19.5151C15.8617 19.7184 15.7874 19.8944 15.6388 20.043C15.4902 20.1916 15.3143 20.2659 15.1109 20.2659H1.08074C0.8774 20.2659 0.701436 20.1916 0.552844 20.043C0.404252 19.8944 0.329956 19.7184 0.329956 19.5151V5.48489Z" fill="#00CCAB"/>
</g>
<defs>
<clipPath id="clip0_0_1482">
<rect width="24.64" height="25" fill="white" transform="matrix(1 0 0 -1 0.329956 25)"/>
</clipPath>
</defs>
</svg>
