<svg width="78" height="78" viewBox="0 0 78 78" fill="none" xmlns="http://www.w3.org/2000/svg">
<path d="M39 65.4062C53.5838 65.4062 65.4062 53.5838 65.4062 39C65.4062 24.4162 53.5838 12.5938 39 12.5938C24.4162 12.5938 12.5938 24.4162 12.5938 39C12.5938 53.5838 24.4162 65.4062 39 65.4062Z" stroke="#415566" stroke-width="0.8125" stroke-dasharray="1.62 1.62"/>
<path d="M39 58.0938C49.5452 58.0938 58.0938 49.5452 58.0938 39C58.0938 28.4548 49.5452 19.9062 39 19.9062C28.4548 19.9062 19.9062 28.4548 19.9062 39C19.9062 49.5452 28.4548 58.0938 39 58.0938Z" stroke="#1B2B38" stroke-width="0.8125"/>
<path d="M50.375 45.5H45.5V50.375H50.375V45.5Z" fill="#111B24"/>
<path d="M50.375 45.5H45.5V50.375H50.375V45.5Z" fill="#00EAC7" fill-opacity="0.06"/>
<path d="M45.5 53.625H40.625V60.125H45.5V53.625Z" fill="#111B24"/>
<path d="M45.5 53.625H40.625V60.125H45.5V53.625Z" fill="#00EAC7" fill-opacity="0.06"/>
<path d="M56.875 35.75H52V42.25H56.875V35.75Z" fill="#111B24"/>
<path d="M56.875 35.75H52V42.25H56.875V35.75Z" fill="#00EAC7" fill-opacity="0.06"/>
<path d="M50.375 12.1875H25.1875L17.0625 20.3125V58.5H32.5V52H37.375V47.125H42.25V40.625H45.5V34.125H50.375V12.1875Z" fill="#111B24"/>
<path d="M50.375 12.1875H25.1875L17.0625 20.3125V58.5H32.5V52H37.375V47.125H42.25V40.625H45.5V34.125H50.375V12.1875Z" fill="#00EAC7" fill-opacity="0.06"/>
<path d="M49.5625 34.125V12.1875H25.1875L17.0625 20.3125V57.6875H32.5" stroke="#00EAC7" stroke-width="1.625" stroke-linejoin="bevel"/>
<path d="M25.1875 12.1875V20.3125H17.0625" stroke="#00EAC7" stroke-width="1.625" stroke-linejoin="bevel"/>
<path d="M22.75 30.4688H42.25" stroke="#00EAC7" stroke-width="0.8125" stroke-linejoin="bevel"/>
<path d="M22.75 34.5312H35.75" stroke="#00EAC7" stroke-width="0.8125" stroke-linejoin="bevel"/>
<path d="M22.75 38.5938H37.375" stroke="#00EAC7" stroke-width="0.8125" stroke-linejoin="bevel"/>
<path d="M22.75 42.6562H34.9375" stroke="#00EAC7" stroke-width="0.8125" stroke-linejoin="bevel"/>
<path d="M22.75 26.4062H43.875" stroke="#00EAC7" stroke-width="0.8125" stroke-linejoin="bevel"/>
<path d="M54.0312 37.7812H49.9688V45.0938M54.0312 37.7812V45.0938H49.9688M54.0312 37.7812L49.9688 45.0938" stroke="white" stroke-width="0.8125" stroke-linejoin="bevel"/>
<path d="M48.3438 47.5312H44.2812V54.8438M48.3438 47.5312V54.8438H44.2812M48.3438 47.5312L44.2812 54.8438" stroke="white" stroke-width="0.8125" stroke-linejoin="bevel"/>
<path d="M49.1562 57.2812H45.0938V64.5938M49.1562 57.2812V64.5938H45.0938M49.1562 57.2812L45.0938 64.5938" stroke="white" stroke-width="0.8125" stroke-linejoin="bevel"/>
<path d="M41.8438 57.2812H37.7812V64.5938M41.8438 57.2812V64.5938H37.7812M41.8438 57.2812L37.7812 64.5938" stroke="white" stroke-width="0.8125" stroke-linejoin="bevel"/>
<path d="M60.5312 37.7812H56.4688V45.0938M60.5312 37.7812V45.0938H56.4688M60.5312 37.7812L56.4688 45.0938" stroke="white" stroke-width="0.8125" stroke-linejoin="bevel"/>
<path d="M45.9062 45.0938V37.7812H43.875M43.875 45.0938H47.9375" stroke="white" stroke-width="0.8125" stroke-linejoin="bevel"/>
<path d="M53.2188 54.8438V47.5312H51.1875M51.1875 54.8438H55.25" stroke="white" stroke-width="0.8125" stroke-linejoin="bevel"/>
<path d="M53.2188 64.5938V57.2812H51.1875M51.1875 64.5938H55.25" stroke="white" stroke-width="0.8125" stroke-linejoin="bevel"/>
<path d="M40.2188 54.8438V47.5312H38.1875M38.1875 54.8438H42.25" stroke="white" stroke-width="0.8125" stroke-linejoin="bevel"/>
<path d="M58.9062 54.8438V47.5312H56.875M56.875 54.8438H60.9375" stroke="white" stroke-width="0.8125" stroke-linejoin="bevel"/>
<path d="M67.0312 10.9688L63.375 13.8125L59.7188 10.9688" stroke="#1B2B38" stroke-width="0.8125" stroke-linecap="square"/>
<path d="M67.0312 13.4062L63.375 16.25L59.7188 13.4062" stroke="#1B2B38" stroke-width="0.8125" stroke-linecap="square"/>
<path d="M14.625 65.8125C14.625 66.4589 14.3682 67.0789 13.9111 67.5361C13.4539 67.9932 12.8339 68.25 12.1875 68.25C11.5411 68.25 10.9211 67.9932 10.4639 67.5361C10.0068 67.0789 9.75 66.4589 9.75 65.8125H12.1875H14.625Z" fill="#1B2B38"/>
<path d="M9.75 63.375C9.75 62.7285 10.0068 62.1086 10.4639 61.6514C10.9211 61.1943 11.5411 60.9375 12.1875 60.9375C12.8339 60.9375 13.4539 61.1943 13.9111 61.6514C14.3682 62.1086 14.625 62.7286 14.625 63.375H12.1875H9.75Z" fill="#1B2B38"/>
</svg>
