<svg width="10" height="14" viewBox="0 0 10 14" fill="none" xmlns="http://www.w3.org/2000/svg">
<path d="M0.875 5.78027C0.875 5.2334 0.979818 4.72298 1.18945 4.24902C1.38997 3.76595 1.66797 3.34668 2.02344 2.99121C2.37891 2.63574 2.79818 2.35775 3.28125 2.15723C3.75521 1.94759 4.26562 1.84277 4.8125 1.84277C5.35938 1.84277 5.86979 1.94759 6.34375 2.15723C6.82682 2.35775 7.24609 2.63574 7.60156 2.99121C7.95703 3.34668 8.23503 3.76595 8.43555 4.24902C8.64518 4.72298 8.75 5.2334 8.75 5.78027C8.75 6.19043 8.71354 6.54818 8.64062 6.85352C8.56771 7.15885 8.46289 7.44824 8.32617 7.72168C8.18945 7.99512 8.02083 8.26628 7.82031 8.53516C7.61979 8.80404 7.37826 9.1071 7.0957 9.44434L4.8125 12.3018L2.5293 9.44434C2.24674 9.1071 2.00521 8.80631 1.80469 8.54199C1.60417 8.27767 1.43555 8.01335 1.29883 7.74902C1.16211 7.4847 1.05729 7.19759 0.984375 6.8877C0.911458 6.5778 0.875 6.20866 0.875 5.78027ZM4.8125 0.967773C4.14714 0.967773 3.52279 1.09538 2.93945 1.35059C2.35612 1.59668 1.8457 1.93848 1.4082 2.37598C0.970703 2.81348 0.628906 3.32389 0.382812 3.90723C0.127604 4.49056 0 5.11491 0 5.78027C0 6.27246 0.0432943 6.70768 0.129883 7.08594C0.216471 7.46419 0.341797 7.81738 0.505859 8.14551C0.669922 8.46452 0.865885 8.76986 1.09375 9.06152C1.32161 9.35319 1.56771 9.65853 1.83203 9.97754L1.8457 9.99121L4.4707 13.2725H5.1543L7.7793 9.99121C8.05273 9.6722 8.30339 9.36003 8.53125 9.05469C8.75911 8.74935 8.95508 8.43262 9.11914 8.10449C9.2832 7.77637 9.40853 7.42318 9.49512 7.04492C9.58171 6.66667 9.625 6.24512 9.625 5.78027C9.625 5.11491 9.4974 4.49056 9.24219 3.90723C8.99609 3.32389 8.6543 2.81348 8.2168 2.37598C7.7793 1.93848 7.26888 1.59668 6.68555 1.35059C6.10221 1.09538 5.47786 0.967773 4.8125 0.967773ZM3.5 5.78027C3.5 5.41569 3.6276 5.10579 3.88281 4.85059C4.13802 4.59538 4.44792 4.46777 4.8125 4.46777C5.17708 4.46777 5.48698 4.59538 5.74219 4.85059C5.9974 5.10579 6.125 5.41569 6.125 5.78027C6.125 6.14486 5.9974 6.45475 5.74219 6.70996C5.48698 6.96517 5.17708 7.09277 4.8125 7.09277C4.44792 7.09277 4.13802 6.96517 3.88281 6.70996C3.6276 6.45475 3.5 6.14486 3.5 5.78027ZM4.8125 3.59277C4.21094 3.59277 3.69596 3.80697 3.26758 4.23535C2.83919 4.66374 2.625 5.17871 2.625 5.78027C2.625 6.38184 2.83919 6.89681 3.26758 7.3252C3.69596 7.75358 4.21094 7.96777 4.8125 7.96777C5.41406 7.96777 5.92904 7.75358 6.35742 7.3252C6.78581 6.89681 7 6.38184 7 5.78027C7 5.17871 6.78581 4.66374 6.35742 4.23535C5.92904 3.80697 5.41406 3.59277 4.8125 3.59277Z" fill="#BCCBD6"/>
</svg>
