<svg width="79" height="78" viewBox="0 0 79 78" fill="none" xmlns="http://www.w3.org/2000/svg">
<path d="M39.405 65.4054C53.9883 65.4054 65.8104 53.5833 65.8104 39C65.8104 24.4166 53.9883 12.5945 39.405 12.5945C24.8217 12.5945 12.9996 24.4166 12.9996 39C12.9996 53.5833 24.8217 65.4054 39.405 65.4054Z" stroke="#415566" stroke-width="0.812474" stroke-dasharray="1.62 1.62"/>
<path d="M39.405 58.0931C49.9499 58.0931 58.4981 49.5449 58.4981 39C58.4981 28.4552 49.9499 19.9069 39.405 19.9069C28.8602 19.9069 20.3119 28.4552 20.3119 39C20.3119 49.5449 28.8602 58.0931 39.405 58.0931Z" stroke="#1B2B38" stroke-width="0.812474"/>
<path d="M69.0603 47.9372C69.0603 51.4628 67.5049 54.8976 64.6181 57.7468C61.7313 60.5961 57.6619 62.713 52.996 63.7927L45.9048 47.9372V42.2499H69.0603V47.9372Z" fill="#111B24"/>
<path d="M69.0603 47.9372C69.0603 51.4628 67.5049 54.8976 64.6181 57.7468C61.7313 60.5961 57.6619 62.713 52.996 63.7927L45.9048 47.9372V42.2499H69.0603V47.9372Z" fill="#00EAC7" fill-opacity="0.06"/>
<path d="M69.0603 47.9372C69.0603 51.4628 67.5049 54.8976 64.6181 57.7468C61.7313 60.5961 57.6619 62.713 52.996 63.7927L45.9048 47.9372V42.2499H69.0603V47.9372Z" stroke="#00EAC7" stroke-width="1.62495" stroke-linejoin="bevel"/>
<path d="M46.5605 58.9029C41.9099 59.9898 36.9002 59.9898 32.2495 58.9029C27.5989 57.816 23.5461 55.698 20.6718 52.8523C17.7976 50.0067 16.2495 46.5797 16.2495 43.0624C16.2495 39.5451 16.2495 36.5223 16.2495 36.5223C20.7662 32.0506 39.405 37.375 39.405 37.375L24.7805 24.7817V21.1255C28.8428 22.3443 60.4527 31.6321 62.5605 33.7189C62.5605 33.7189 62.5605 35.8889 62.5605 39.4062H40.2175L46.5605 53.2183V58.9029Z" fill="#111B24" stroke="white" stroke-width="0.812474" stroke-linejoin="bevel"/>
<path d="M24.658 21.284C28.0418 19.2734 32.1504 17.996 36.5049 17.6006C40.8593 17.2052 45.2803 17.7081 49.2527 19.0507C53.225 20.3934 56.585 22.5204 58.9412 25.1839C61.2973 27.8475 62.5525 30.9379 62.5605 34.0949L39.405 34.1251L24.658 21.284Z" fill="#111B24" stroke="white" stroke-width="0.812474" stroke-linejoin="bevel"/>
<path d="M53.2171 57.6868V63.3741" stroke="#00EAC7" stroke-width="0.812474" stroke-linejoin="bevel"/>
<path d="M68.6541 42.2499C68.6541 45.6825 67.126 49.0266 64.2898 51.8006C61.4537 54.5747 57.8012 56.6357 53.2171 57.6869L45.9048 42.2499" stroke="#00EAC7" stroke-width="0.812474" stroke-linejoin="bevel"/>
<path d="M46.7173 42.2499H45.9048V47.9372" stroke="#00EAC7" stroke-width="1.62495" stroke-linejoin="bevel"/>
<path d="M46.5605 53.2156C41.4513 54.4096 35.924 54.2888 30.9251 52.8737C25.9263 51.4586 21.767 48.8373 19.1597 45.4589C16.5524 42.0805 15.6592 38.155 16.6333 34.355C17.6074 30.555 20.388 27.1167 24.4989 24.6293L39.405 37.375L46.5605 53.2156Z" fill="#111B24" stroke="white" stroke-width="0.812474" stroke-linejoin="bevel"/>
<path d="M24.3742 55.6557V49.9684L39.405 37.375V34.1251" stroke="white" stroke-width="0.812474" stroke-linejoin="bevel"/>
<path d="M60.5293 16.6569H63.7792V13.407" stroke="#1B2B38" stroke-width="0.812474" stroke-linecap="square"/>
<path d="M68.6541 18.2819H65.4042V21.5318" stroke="#1B2B38" stroke-width="0.812474" stroke-linecap="square"/>
<path d="M12.9996 63.3742L10.6814 65.0584L11.5669 67.7836H14.4323L15.3177 65.0584L12.9996 63.3742Z" fill="#1B2B38"/>
</svg>
