<svg width="78" height="78" viewBox="0 0 78 78" fill="none" xmlns="http://www.w3.org/2000/svg">
<path d="M39 58.0938C49.5452 58.0938 58.0938 49.5452 58.0938 39C58.0938 28.4548 49.5452 19.9062 39 19.9062C28.4548 19.9062 19.9062 28.4548 19.9062 39C19.9062 49.5452 28.4548 58.0938 39 58.0938Z" stroke="#1B2B38" stroke-width="0.8125"/>
<path d="M17.187 26.4062C18.9066 23.4277 21.218 20.8329 23.9788 18.7818C26.7395 16.7307 29.8911 15.2667 33.2393 14.4801C36.5874 13.6935 40.0612 13.6009 43.4465 14.2081C46.8318 14.8153 50.0568 16.1093 52.9229 18.0104C55.789 19.9116 58.2354 22.3796 60.1113 25.2622L57.3784 27.0406C55.7454 24.5311 53.6157 22.3826 51.1206 20.7275C48.6255 19.0725 45.8179 17.9459 42.8709 17.4174C39.9238 16.8889 36.8998 16.9694 33.985 17.6542C31.0702 18.339 28.3267 19.6134 25.9233 21.3991C23.5199 23.1847 21.5077 25.4435 20.0107 28.0365L17.187 26.4062Z" fill="#111B24" stroke="white" stroke-width="0.8125" stroke-linejoin="bevel"/>
<path fill-rule="evenodd" clip-rule="evenodd" d="M39.4063 20.7188L46.3125 15.4375L39.4063 10.1562V13.8157C36.8868 13.7751 34.3701 14.1127 31.9414 14.8218C28.64 15.7856 25.5708 17.4154 22.9232 19.6106C20.2757 21.8059 18.1058 24.5201 16.5471 27.586L19.4537 29.0635C20.8105 26.3945 22.6995 24.0316 25.0044 22.1206C27.3093 20.2095 29.9811 18.7907 32.8551 17.9516C34.9864 17.3295 37.1954 17.0358 39.4063 17.0768V20.7188Z" fill="#111B24"/>
<path d="M46.3125 15.4375L46.5593 15.7602V15.1148L46.3125 15.4375ZM39.4062 20.7188H39L39.653 21.0415L39.4062 20.7188ZM39.4062 10.1563L39.653 9.83353L39 10.1563H39.4062ZM39.4062 13.8158L39.3997 14.222L39.8125 13.8158H39.4062ZM16.5471 27.586L16.185 27.4019L16.363 27.9481L16.5471 27.586ZM19.4537 29.0635L19.2696 29.4257L19.8158 29.2476L19.4537 29.0635ZM39.4062 17.0768H39.8125L39.4138 16.6706L39.4062 17.0768ZM46.0657 15.1148L39.1595 20.396L39.653 21.0415L46.5593 15.7602L46.0657 15.1148ZM39.1595 10.479L46.0657 15.7602L46.5593 15.1148L39.653 9.83353L39.1595 10.479ZM39.8125 13.8158V10.1563H39V13.8158H39.8125ZM32.0553 15.2117C34.4448 14.5142 36.9208 14.182 39.3997 14.222L39.4128 13.4096C36.8526 13.3683 34.2955 13.7113 31.8276 14.4318L32.0553 15.2117ZM23.1826 19.9233C25.7874 17.7635 28.807 16.1601 32.0553 15.2117L31.8276 14.4318C28.4728 15.4112 25.3542 17.0672 22.664 19.2979L23.1826 19.9233ZM16.9093 27.7701C18.4427 24.7536 20.5777 22.0832 23.1826 19.9233L22.664 19.2979C19.9737 21.5286 17.7687 24.2865 16.185 27.4019L16.9093 27.7701ZM19.6377 28.7014L16.7312 27.2239L16.363 27.9481L19.2696 29.4257L19.6377 28.7014ZM24.7451 21.8078C22.3975 23.7543 20.4735 26.161 19.0916 28.8794L19.8158 29.2476C21.1475 26.6281 23.0015 24.3089 25.2637 22.4333L24.7451 21.8078ZM32.7413 17.5616C29.814 18.4163 27.0926 19.8613 24.7451 21.8078L25.2637 22.4333C27.5258 20.5576 30.1481 19.1651 32.969 18.3416L32.7413 17.5616ZM39.4138 16.6706C37.1619 16.6289 34.912 16.928 32.7413 17.5616L32.969 18.3416C35.0608 17.7309 37.2287 17.4428 39.3987 17.483L39.4138 16.6706ZM39.8125 20.7188V17.0768H39V20.7188H39.8125Z" fill="white"/>
<path d="M60.813 26.4063C62.5327 29.3849 63.6241 32.684 64.02 36.1004C64.416 39.5169 64.108 42.9782 63.1152 46.2711C62.1224 49.564 60.4657 52.6186 58.2471 55.2468C56.0287 57.875 53.2955 60.021 50.216 61.5525C47.1365 63.084 43.776 63.9687 40.3416 64.1518L40.168 60.896C43.1578 60.7365 46.0833 59.9664 48.7641 58.6331C51.445 57.2999 53.8244 55.4317 55.7556 53.1437C57.6869 50.8558 59.1292 48.1965 59.9935 45.3299C60.8578 42.4633 61.1259 39.45 60.7813 36.4758C60.4365 33.5016 59.4864 30.6295 57.9893 28.0366L60.813 26.4063Z" fill="#111B24" stroke="white" stroke-width="0.8125" stroke-linejoin="bevel"/>
<path fill-rule="evenodd" clip-rule="evenodd" d="M54.6289 48.4925L55.7495 57.1141L63.7763 53.7738L60.6071 51.944C61.902 49.7824 62.8679 47.4342 63.4683 44.9763C64.2843 41.6352 64.4074 38.1624 63.8301 34.7719C63.2527 31.3814 61.9871 28.1451 60.1113 25.2623L57.3784 27.0407C59.0115 29.5502 60.1132 32.3676 60.6158 35.3192C61.1185 38.2709 61.0113 41.2941 60.3008 44.2027C59.7741 46.3595 58.9239 48.4193 57.783 50.3135L54.6289 48.4925Z" fill="#111B24"/>
<path d="M55.7495 57.1141L55.3466 57.1665L55.9055 57.4893L55.7495 57.1141ZM54.6289 48.4925L54.8321 48.1407L54.226 48.5449L54.6289 48.4925ZM63.7763 53.7738L63.9324 54.1488L63.9794 53.422L63.7763 53.7738ZM60.6071 51.944L60.2586 51.7352L60.4039 52.2958L60.6071 51.944ZM60.1113 25.2623L60.4518 25.0408L59.8897 24.9218L60.1113 25.2623ZM57.3784 27.0407L57.1569 26.7002L57.0379 27.2623L57.3784 27.0407ZM57.783 50.3135L57.5799 50.6653L58.131 50.5231L57.783 50.3135ZM56.1524 57.0618L55.0318 48.4402L54.226 48.5449L55.3466 57.1665L56.1524 57.0618ZM63.6202 53.3987L55.5934 56.7391L55.9055 57.4893L63.9324 54.1488L63.6202 53.3987ZM60.4039 52.2958L63.5732 54.1256L63.9794 53.422L60.8102 51.5922L60.4039 52.2958ZM63.0736 44.8799C62.483 47.2981 61.5326 49.6085 60.2586 51.7352L60.9555 52.1528C62.2714 49.9563 63.2529 47.5702 63.8629 45.0727L63.0736 44.8799ZM63.4296 34.8401C63.9976 38.1759 63.8765 41.5927 63.0736 44.8799L63.8629 45.0727C64.6921 41.6777 64.8172 38.1489 64.2306 34.7037L63.4296 34.8401ZM59.7708 25.4839C61.6164 28.3202 62.8616 31.5043 63.4296 34.8401L64.2306 34.7037C63.6439 31.2585 62.3579 27.97 60.4518 25.0408L59.7708 25.4839ZM57.6 27.3812L60.3328 25.6029L59.8897 24.9218L57.1569 26.7002L57.6 27.3812ZM61.0163 35.251C60.5044 32.2447 59.3822 29.3751 57.7189 26.8191L57.0379 27.2623C58.6407 29.7253 59.7221 32.4905 60.2154 35.3875L61.0163 35.251ZM60.6955 44.299C61.4191 41.3366 61.5283 38.2573 61.0163 35.251L60.2154 35.3875C60.7086 38.2844 60.6034 41.2516 59.9062 44.1063L60.6955 44.299ZM58.131 50.5231C59.293 48.5938 60.159 46.4958 60.6955 44.299L59.9062 44.1063C59.3892 46.2231 58.5548 48.2448 57.435 50.1039L58.131 50.5231ZM54.4258 48.8443L57.5799 50.6653L57.9861 49.9617L54.8321 48.1407L54.4258 48.8443Z" fill="white"/>
<path d="M39 64.1877C35.5607 64.1877 32.1579 63.4833 29.0011 62.118C25.8445 60.7527 23.0008 58.7553 20.6455 56.249C18.2903 53.7427 16.4732 50.7807 15.3064 47.5453C14.1395 44.31 13.6476 40.87 13.8611 37.4373C14.0744 34.0046 14.9886 30.652 16.5472 27.5861L19.4537 29.0637C18.0969 31.7327 17.3011 34.6512 17.1153 37.6396C16.9295 40.6279 17.3577 43.6226 18.3735 46.4392C19.3893 49.2557 20.9711 51.8343 23.0215 54.0161C25.0719 56.1979 27.5474 57.9368 30.2955 59.1254C33.0436 60.314 36.0059 60.9271 39 60.9271V64.1877Z" fill="#111B24" stroke="white" stroke-width="0.8125" stroke-linejoin="bevel"/>
<path fill-rule="evenodd" clip-rule="evenodd" d="M22.9649 47.7889L14.9381 44.4485L13.8175 53.0701L16.9867 51.2404C18.2113 53.4427 19.762 55.4533 21.5903 57.2021C24.0758 59.5794 27.0218 61.4224 30.2467 62.6177C33.4717 63.8129 36.9072 64.3351 40.3416 64.1518L40.168 60.896C37.1781 61.0555 34.1873 60.601 31.3798 59.5604C28.5724 58.5199 26.0077 56.9154 23.844 54.8459C22.2396 53.3113 20.8808 51.5451 19.8109 49.6099L22.9649 47.7889Z" fill="#111B24"/>
<path d="M14.9381 44.4485L15.0941 44.0735L14.5352 44.3962L14.9381 44.4485ZM22.9649 47.7889L23.168 48.1407L23.121 47.4138L22.9649 47.7889ZM13.8175 53.0701L13.4146 53.0178L14.0206 53.4219L13.8175 53.0701ZM16.9867 51.2404L17.3418 51.0429L16.7836 50.8886L16.9867 51.2404ZM40.3416 64.1518L40.3633 64.5575L40.7473 64.1302L40.3416 64.1518ZM40.168 60.896L40.5737 60.8744L40.1464 60.4903L40.168 60.896ZM19.8109 49.6099L19.6077 49.258L19.4553 49.8065L19.8109 49.6099ZM14.782 44.8236L22.8088 48.164L23.121 47.4138L15.0941 44.0735L14.782 44.8236ZM14.2204 53.1225L15.3409 44.5009L14.5352 44.3962L13.4146 53.0178L14.2204 53.1225ZM16.7836 50.8886L13.6143 52.7183L14.0206 53.4219L17.1898 51.5922L16.7836 50.8886ZM21.8711 56.9085C20.0722 55.1879 18.5466 53.2097 17.3418 51.0429L16.6317 51.4378C17.876 53.6756 19.4517 55.7187 21.3095 57.4957L21.8711 56.9085ZM30.3879 62.2368C27.215 61.0607 24.3165 59.2475 21.8711 56.9085L21.3095 57.4957C23.8351 59.9113 26.8286 61.7841 30.1056 62.9986L30.3879 62.2368ZM40.32 63.7462C36.941 63.9264 33.5608 63.4127 30.3879 62.2368L30.1056 62.9986C33.3825 64.2132 36.8734 64.7436 40.3633 64.5575L40.32 63.7462ZM39.7623 60.9176L39.9359 64.1735L40.7473 64.1302L40.5737 60.8744L39.7623 60.9176ZM31.2387 59.9413C34.0981 61.0011 37.1443 61.4641 40.1896 61.3017L40.1464 60.4903C37.2119 60.6469 34.2765 60.2007 31.521 59.1795L31.2387 59.9413ZM23.5632 55.1395C25.7671 57.2474 28.3792 58.8815 31.2387 59.9413L31.521 59.1795C28.7656 58.1583 26.2485 56.5835 24.1248 54.5523L23.5632 55.1395ZM19.4553 49.8065C20.5451 51.7775 21.9291 53.5764 23.5632 55.1395L24.1248 54.5523C22.5501 53.0462 21.2165 51.3127 20.1663 49.4133L19.4553 49.8065ZM22.7618 47.4371L19.6077 49.258L20.014 49.9618L23.168 48.1407L22.7618 47.4371Z" fill="white"/>
<path d="M39 56.875C35.4101 56.875 32.5 59.7851 32.5 63.375C32.5 66.9649 35.4101 69.875 39 69.875C42.5899 69.875 45.5 66.9649 45.5 63.375C45.5 59.7851 42.5899 56.875 39 56.875Z" fill="#111B24"/>
<path d="M39 56.875C35.4101 56.875 32.5 59.7851 32.5 63.375C32.5 66.9649 35.4101 69.875 39 69.875C42.5899 69.875 45.5 66.9649 45.5 63.375C45.5 59.7851 42.5899 56.875 39 56.875Z" fill="#00EAC7" fill-opacity="0.06"/>
<path d="M39 56.875C35.4101 56.875 32.5 59.7851 32.5 63.375C32.5 66.9649 35.4101 69.875 39 69.875C42.5899 69.875 45.5 66.9649 45.5 63.375C45.5 59.7851 42.5899 56.875 39 56.875Z" stroke="#00EAC7" stroke-width="1.625" stroke-linejoin="bevel"/>
<path d="M17.875 19.5C14.2851 19.5 11.375 22.4101 11.375 26C11.375 29.5899 14.2851 32.5 17.875 32.5C21.4649 32.5 24.375 29.5899 24.375 26C24.375 22.4101 21.4649 19.5 17.875 19.5Z" fill="#111B24"/>
<path d="M17.875 19.5C14.2851 19.5 11.375 22.4101 11.375 26C11.375 29.5899 14.2851 32.5 17.875 32.5C21.4649 32.5 24.375 29.5899 24.375 26C24.375 22.4101 21.4649 19.5 17.875 19.5Z" fill="#00EAC7" fill-opacity="0.06"/>
<path d="M17.875 19.5C14.2851 19.5 11.375 22.4101 11.375 26C11.375 29.5899 14.2851 32.5 17.875 32.5C21.4649 32.5 24.375 29.5899 24.375 26C24.375 22.4101 21.4649 19.5 17.875 19.5Z" stroke="#00EAC7" stroke-width="1.625" stroke-linejoin="bevel"/>
<path d="M60.1249 19.5C56.5351 19.5 53.6249 22.4101 53.6249 26C53.6249 29.5899 56.5351 32.5 60.1249 32.5C63.7148 32.5 66.6249 29.5899 66.6249 26C66.6249 22.4101 63.7148 19.5 60.1249 19.5Z" fill="#111B24"/>
<path d="M60.1249 19.5C56.5351 19.5 53.6249 22.4101 53.6249 26C53.6249 29.5899 56.5351 32.5 60.1249 32.5C63.7148 32.5 66.6249 29.5899 66.6249 26C66.6249 22.4101 63.7148 19.5 60.1249 19.5Z" fill="#00EAC7" fill-opacity="0.06"/>
<path d="M60.1249 19.5C56.5351 19.5 53.6249 22.4101 53.6249 26C53.6249 29.5899 56.5351 32.5 60.1249 32.5C63.7148 32.5 66.6249 29.5899 66.6249 26C66.6249 22.4101 63.7148 19.5 60.1249 19.5Z" stroke="#00EAC7" stroke-width="1.625" stroke-linejoin="bevel"/>
<path d="M60.5312 64.5937V67.8437H65.4062V64.5937" stroke="#1B2B38" stroke-width="0.8125" stroke-linecap="square"/>
<path d="M62.9688 65.4062V62.1562H67.8438V65.4062" stroke="#1B2B38" stroke-width="0.8125" stroke-linecap="square"/>
<path d="M17.4688 10.1562H10.1562" stroke="#1B2B38" stroke-width="0.8125" stroke-linecap="square"/>
<path d="M17.4688 12.5937H10.1562" stroke="#1B2B38" stroke-width="0.8125" stroke-linecap="square"/>
</svg>
